<svg width="21" height="20" viewBox="0 0 21 20" fill="none" xmlns="http://www.w3.org/2000/svg">
<g clip-path="url(#clip0_11_258)">
<path d="M10.0444 20L12.8547 4.19644C15.5335 4.19644 16.3778 4.4903 16.4998 5.68872C16.4998 5.68872 18.2962 5.01862 19.2032 3.65782C15.6665 2.01901 12.1133 1.94535 12.1133 1.94535L10.0396 4.4705H10.0444L7.9707 1.94456C7.9707 1.94456 4.41743 2.01822 0.881592 3.65703C1.78694 5.01782 3.58417 5.68792 3.58417 5.68792C3.70694 4.48872 4.5505 4.19565 7.2111 4.19327L10.0436 19.9992" fill="#E82127"/>
<path d="M10.0428 1.21663C12.9014 1.19446 16.1735 1.65861 19.5232 3.11842C19.9707 2.31287 20.0863 1.95644 20.0863 1.95644C16.4246 0.508515 12.9956 0.0126733 10.0428 0C7.0899 0.0126733 3.66099 0.508515 0 1.95723C0 1.95723 0.163168 2.39604 0.562376 3.11921C3.91129 1.65861 7.18416 1.19446 10.0428 1.21663Z" fill="#E82127"/>
</g>
<defs>
<clipPath id="clip0_11_258">
<rect width="20.0855" height="20" fill="white"/>
</clipPath>
</defs>
</svg>
